<?xml version="1.0" encoding="UTF-8" standalone="no"?>
<!DOCTYPE svg PUBLIC "-//W3C//DTD SVG 1.1//EN"
 "http://www.w3.org/Graphics/SVG/1.1/DTD/svg11.dtd">
<!-- Generated by graphviz version 14.1.5 (20260411.2331)
 -->
<!-- Title: G Pages: 1 -->
<svg width="1711pt" height="815pt"
 viewBox="0.00 0.00 1711.00 815.00" xmlns="http://www.w3.org/2000/svg" xmlns:xlink="http://www.w3.org/1999/xlink">
<g id="graph0" class="graph" transform="scale(1 1) rotate(0) translate(21.6 793.25)">
<title>G</title>
<polygon fill="#111111" stroke="none" points="-21.6,21.6 -21.6,-793.25 1689.1,-793.25 1689.1,21.6 -21.6,21.6"/>
<!-- src/debugBuffer.ts -->
<g id="node1" class="node">
<title>src/debugBuffer.ts</title>
<path fill="none" stroke="#cfffac" d="M1659.58,-342C1659.58,-342 1550.67,-342 1550.67,-342 1546.71,-342 1542.75,-338.05 1542.75,-334.09 1542.75,-334.09 1542.75,-326.17 1542.75,-326.17 1542.75,-322.21 1546.71,-318.25 1550.67,-318.25 1550.67,-318.25 1659.58,-318.25 1659.58,-318.25 1663.54,-318.25 1667.5,-322.21 1667.5,-326.17 1667.5,-326.17 1667.5,-334.09 1667.5,-334.09 1667.5,-338.05 1663.54,-342 1659.58,-342"/>
<text xml:space="preserve" text-anchor="middle" x="1605.12" y="-324.7" font-family="Arial" font-size="14.00" fill="#cfffac">src/debugBuffer.ts</text>
</g>
<!-- src/engine/agents/novel&#45;agent.ts -->
<g id="node2" class="node">
<title>src/engine/agents/novel&#45;agent.ts</title>
<path fill="none" stroke="#cfffac" d="M814.08,-502C814.08,-502 618.92,-502 618.92,-502 614.96,-502 611,-498.05 611,-494.09 611,-494.09 611,-486.17 611,-486.17 611,-482.21 614.96,-478.25 618.92,-478.25 618.92,-478.25 814.08,-478.25 814.08,-478.25 818.04,-478.25 822,-482.21 822,-486.17 822,-486.17 822,-494.09 822,-494.09 822,-498.05 818.04,-502 814.08,-502"/>
<text xml:space="preserve" text-anchor="middle" x="716.5" y="-484.7" font-family="Arial" font-size="14.00" fill="#cfffac">src/engine/agents/novel&#45;agent.ts</text>
</g>
<!-- src/engine/constants/errors.ts -->
<g id="node3" class="node">
<title>src/engine/constants/errors.ts</title>
<path fill="none" stroke="#c6c5fe" d="M1090.71,-502C1090.71,-502 913.54,-502 913.54,-502 909.58,-502 905.62,-498.05 905.62,-494.09 905.62,-494.09 905.62,-486.17 905.62,-486.17 905.62,-482.21 909.58,-478.25 913.54,-478.25 913.54,-478.25 1090.71,-478.25 1090.71,-478.25 1094.67,-478.25 1098.62,-482.21 1098.62,-486.17 1098.62,-486.17 1098.62,-494.09 1098.62,-494.09 1098.62,-498.05 1094.67,-502 1090.71,-502"/>
<text xml:space="preserve" text-anchor="middle" x="1002.12" y="-484.7" font-family="Arial" font-size="14.00" fill="#c6c5fe">src/engine/constants/errors.ts</text>
</g>
<!-- src/shared/chunkErrors.ts -->
<g id="node4" class="node">
<title>src/shared/chunkErrors.ts</title>
<path fill="none" stroke="#cfffac" d="M1351.58,-502C1351.58,-502 1197.67,-502 1197.67,-502 1193.71,-502 1189.75,-498.05 1189.75,-494.09 1189.75,-494.09 1189.75,-486.17 1189.75,-486.17 1189.75,-482.21 1193.71,-478.25 1197.67,-478.25 1197.67,-478.25 1351.58,-478.25 1351.58,-478.25 1355.54,-478.25 1359.5,-482.21 1359.5,-486.17 1359.5,-486.17 1359.5,-494.09 1359.5,-494.09 1359.5,-498.05 1355.54,-502 1351.58,-502"/>
<text xml:space="preserve" text-anchor="middle" x="1274.62" y="-484.7" font-family="Arial" font-size="14.00" fill="#cfffac">src/shared/chunkErrors.ts</text>
</g>
<!-- src/engine/constants/errors.ts&#45;&gt;src/shared/chunkErrors.ts -->
<g id="edge1" class="edge">
<title>src/engine/constants/errors.ts&#45;&gt;src/shared/chunkErrors.ts</title>
<path fill="none" stroke="#757575" d="M1098.87,-490.13C1124.69,-490.13 1152.61,-490.13 1178.4,-490.13"/>
<polygon fill="#757575" stroke="#757575" points="1178.18,-493.63 1188.18,-490.13 1178.18,-486.63 1178.18,-493.63"/>
</g>
<!-- src/engine/constants/text&#45;block&#45;presets.ts -->
<g id="node5" class="node">
<title>src/engine/constants/text&#45;block&#45;presets.ts</title>
<path fill="none" stroke="#cfffac" d="M256.33,-464C256.33,-464 7.92,-464 7.92,-464 3.96,-464 0,-460.05 0,-456.09 0,-456.09 0,-448.17 0,-448.17 0,-444.21 3.96,-440.25 7.92,-440.25 7.92,-440.25 256.33,-440.25 256.33,-440.25 260.29,-440.25 264.25,-444.21 264.25,-448.17 264.25,-448.17 264.25,-456.09 264.25,-456.09 264.25,-460.05 260.29,-464 256.33,-464"/>
<text xml:space="preserve" text-anchor="middle" x="132.12" y="-446.7" font-family="Arial" font-size="14.00" fill="#cfffac">src/engine/constants/text&#45;block&#45;presets.ts</text>
</g>
<!-- src/engine/glossary/declension&#45;ru.ts -->
<g id="node6" class="node">
<title>src/engine/glossary/declension&#45;ru.ts</title>
<path fill="none" stroke="#cfffac" d="M537.83,-618C537.83,-618 322.42,-618 322.42,-618 318.46,-618 314.5,-614.05 314.5,-610.09 314.5,-610.09 314.5,-602.17 314.5,-602.17 314.5,-598.21 318.46,-594.25 322.42,-594.25 322.42,-594.25 537.83,-594.25 537.83,-594.25 541.79,-594.25 545.75,-598.21 545.75,-602.17 545.75,-602.17 545.75,-610.09 545.75,-610.09 545.75,-614.05 541.79,-618 537.83,-618"/>
<text xml:space="preserve" text-anchor="middle" x="430.12" y="-600.7" font-family="Arial" font-size="14.00" fill="#cfffac">src/engine/glossary/declension&#45;ru.ts</text>
</g>
<!-- src/engine/glossary/declension.ts -->
<g id="node7" class="node">
<title>src/engine/glossary/declension.ts</title>
<path fill="none" stroke="#cfffac" d="M1374.08,-620C1374.08,-620 1175.17,-620 1175.17,-620 1171.21,-620 1167.25,-616.05 1167.25,-612.09 1167.25,-612.09 1167.25,-604.17 1167.25,-604.17 1167.25,-600.21 1171.21,-596.25 1175.17,-596.25 1175.17,-596.25 1374.08,-596.25 1374.08,-596.25 1378.04,-596.25 1382,-600.21 1382,-604.17 1382,-604.17 1382,-612.09 1382,-612.09 1382,-616.05 1378.04,-620 1374.08,-620"/>
<text xml:space="preserve" text-anchor="middle" x="1274.62" y="-602.7" font-family="Arial" font-size="14.00" fill="#cfffac">src/engine/glossary/declension.ts</text>
</g>
<!-- src/engine/glossary/glossary&#45;filter.ts -->
<g id="node8" class="node">
<title>src/engine/glossary/glossary&#45;filter.ts</title>
<path fill="none" stroke="#cfffac" d="M1109.08,-220C1109.08,-220 895.17,-220 895.17,-220 891.21,-220 887.25,-216.05 887.25,-212.09 887.25,-212.09 887.25,-204.17 887.25,-204.17 887.25,-200.21 891.21,-196.25 895.17,-196.25 895.17,-196.25 1109.08,-196.25 1109.08,-196.25 1113.04,-196.25 1117,-200.21 1117,-204.17 1117,-204.17 1117,-212.09 1117,-212.09 1117,-216.05 1113.04,-220 1109.08,-220"/>
<text xml:space="preserve" text-anchor="middle" x="1002.12" y="-202.7" font-family="Arial" font-size="14.00" fill="#cfffac">src/engine/glossary/glossary&#45;filter.ts</text>
</g>
<!-- src/engine/glossary/glossary&#45;manager.ts -->
<g id="node9" class="node">
<title>src/engine/glossary/glossary&#45;manager.ts</title>
<path fill="none" stroke="#c6c5fe" d="M1123.33,-422C1123.33,-422 880.92,-422 880.92,-422 876.96,-422 873,-418.05 873,-414.09 873,-414.09 873,-406.17 873,-406.17 873,-402.21 876.96,-398.25 880.92,-398.25 880.92,-398.25 1123.33,-398.25 1123.33,-398.25 1127.29,-398.25 1131.25,-402.21 1131.25,-406.17 1131.25,-406.17 1131.25,-414.09 1131.25,-414.09 1131.25,-418.05 1127.29,-422 1123.33,-422"/>
<text xml:space="preserve" text-anchor="middle" x="1002.12" y="-404.7" font-family="Arial" font-size="14.00" fill="#c6c5fe">src/engine/glossary/glossary&#45;manager.ts</text>
</g>
<!-- src/engine/glossary/glossary&#45;manager.ts&#45;&gt;src/engine/glossary/declension.ts -->
<g id="edge2" class="edge">
<title>src/engine/glossary/glossary&#45;manager.ts&#45;&gt;src/engine/glossary/declension.ts</title>
<path fill="none" stroke="#757575" d="M1040.5,-422.45C1067.37,-432.42 1103.6,-448.24 1131.25,-469.13 1150.87,-483.95 1150.13,-493.48 1167.25,-511.13 1194.5,-539.23 1228.23,-569.25 1250.3,-588.33"/>
<polygon fill="#757575" stroke="#757575" points="1247.98,-590.95 1257.85,-594.81 1252.54,-585.64 1247.98,-590.95"/>
</g>
<!-- src/engine/index.ts -->
<g id="node10" class="node">
<title>src/engine/index.ts</title>
<path fill="none" stroke="#c6c5fe" d="M188.46,-422C188.46,-422 75.79,-422 75.79,-422 71.83,-422 67.88,-418.05 67.88,-414.09 67.88,-414.09 67.88,-406.17 67.88,-406.17 67.88,-402.21 71.83,-398.25 75.79,-398.25 75.79,-398.25 188.46,-398.25 188.46,-398.25 192.42,-398.25 196.38,-402.21 196.38,-406.17 196.38,-406.17 196.38,-414.09 196.38,-414.09 196.38,-418.05 192.42,-422 188.46,-422"/>
<text xml:space="preserve" text-anchor="middle" x="132.12" y="-404.7" font-family="Arial" font-size="14.00" fill="#c6c5fe">src/engine/index.ts</text>
</g>
<!-- src/engine/index.ts&#45;&gt;src/engine/agents/novel&#45;agent.ts -->
<g id="edge3" class="edge">
<title>src/engine/index.ts&#45;&gt;src/engine/agents/novel&#45;agent.ts</title>
<path fill="none" stroke="#757575" d="M196.84,-418.88C297.48,-432.71 494.13,-459.72 614.26,-476.22"/>
<polygon fill="#757575" stroke="#757575" points="613.76,-479.69 624.14,-477.58 614.71,-472.75 613.76,-479.69"/>
</g>
<!-- src/engine/index.ts&#45;&gt;src/engine/constants/errors.ts -->
<g id="edge4" class="edge">
<title>src/engine/index.ts&#45;&gt;src/engine/constants/errors.ts</title>
<path fill="none" stroke="#757575" d="M196.71,-408.7C219.8,-411.01 244.93,-417.12 264.25,-431.13 292.57,-451.66 271.51,-481.18 300.25,-501.13 354.62,-538.87 529.93,-532.23 596,-536.13 702.93,-542.43 730.89,-550.72 837,-536.13 878.48,-530.42 924.25,-516.97 956.89,-506.08"/>
<polygon fill="#757575" stroke="#757575" points="957.66,-509.52 966,-502.99 955.41,-502.89 957.66,-509.52"/>
</g>
<!-- src/engine/index.ts&#45;&gt;src/engine/glossary/declension&#45;ru.ts -->
<g id="edge5" class="edge">
<title>src/engine/index.ts&#45;&gt;src/engine/glossary/declension&#45;ru.ts</title>
<path fill="none" stroke="#757575" d="M196.67,-406.13C220.57,-407.95 246.28,-414.39 264.25,-431.13 315.68,-479.04 248.88,-537.15 300.25,-585.13 301.7,-586.48 303.21,-587.77 304.76,-589"/>
<polygon fill="#757575" stroke="#757575" points="302.6,-591.77 312.85,-594.46 306.52,-585.97 302.6,-591.77"/>
</g>
<!-- src/engine/index.ts&#45;&gt;src/engine/glossary/declension.ts -->
<g id="edge6" class="edge">
<title>src/engine/index.ts&#45;&gt;src/engine/glossary/declension.ts</title>
<path fill="none" stroke="#757575" d="M196.63,-405.42C220.81,-407.08 246.74,-413.59 264.25,-431.13 336.43,-503.41 222.57,-591.8 300.25,-658.13 583.37,-899.89 1098.82,-689.16 1238.12,-625.14"/>
<polygon fill="#757575" stroke="#757575" points="1239.26,-628.47 1246.86,-621.09 1236.32,-622.12 1239.26,-628.47"/>
</g>
<!-- src/engine/index.ts&#45;&gt;src/engine/glossary/glossary&#45;filter.ts -->
<g id="edge7" class="edge">
<title>src/engine/index.ts&#45;&gt;src/engine/glossary/glossary&#45;filter.ts</title>
<path fill="none" stroke="#757575" d="M136.31,-397.87C148.53,-353.81 196.89,-203.03 300.25,-146.13 311.83,-139.76 833.46,-147.58 837,-149.13 858.32,-158.44 852.45,-176.23 873,-187.13 876.09,-188.76 879.27,-190.28 882.53,-191.68"/>
<polygon fill="#757575" stroke="#757575" points="881.14,-194.9 891.73,-195.24 883.67,-188.37 881.14,-194.9"/>
</g>
<!-- src/engine/index.ts&#45;&gt;src/engine/glossary/glossary&#45;manager.ts -->
<g id="edge8" class="edge">
<title>src/engine/index.ts&#45;&gt;src/engine/glossary/glossary&#45;manager.ts</title>
<path fill="none" stroke="#757575" d="M196.82,-412.67C219.04,-415.5 243.57,-420.94 264.25,-431.13 283.99,-440.86 280.49,-455.45 300.25,-465.13 419.71,-523.66 463.37,-500.88 596,-511.13 702.79,-519.38 739.69,-555.89 837,-511.13 859.34,-500.86 853.38,-483.95 873,-469.13 897.2,-450.85 927.96,-436.46 953.27,-426.46"/>
<polygon fill="#757575" stroke="#757575" points="954.25,-429.83 962.34,-422.99 951.75,-423.29 954.25,-429.83"/>
</g>
<!-- src/engine/pipeline/translation&#45;pipeline.ts -->
<g id="node11" class="node">
<title>src/engine/pipeline/translation&#45;pipeline.ts</title>
<path fill="none" stroke="#c6c5fe" d="M552.08,-382C552.08,-382 308.17,-382 308.17,-382 304.21,-382 300.25,-378.05 300.25,-374.09 300.25,-374.09 300.25,-366.17 300.25,-366.17 300.25,-362.21 304.21,-358.25 308.17,-358.25 308.17,-358.25 552.08,-358.25 552.08,-358.25 556.04,-358.25 560,-362.21 560,-366.17 560,-366.17 560,-374.09 560,-374.09 560,-378.05 556.04,-382 552.08,-382"/>
<text xml:space="preserve" text-anchor="middle" x="430.12" y="-364.7" font-family="Arial" font-size="14.00" fill="#c6c5fe">src/engine/pipeline/translation&#45;pipeline.ts</text>
</g>
<!-- src/engine/index.ts&#45;&gt;src/engine/pipeline/translation&#45;pipeline.ts -->
<g id="edge9" class="edge">
<title>src/engine/index.ts&#45;&gt;src/engine/pipeline/translation&#45;pipeline.ts</title>
<path fill="none" stroke="#757575" d="M196.62,-401.55C234.44,-396.44 283.33,-389.83 326.51,-384"/>
<polygon fill="#757575" stroke="#757575" points="326.7,-387.5 336.14,-382.69 325.77,-380.56 326.7,-387.5"/>
</g>
<!-- src/engine/prompts/system/analyzer.ts -->
<g id="node12" class="node">
<title>src/engine/prompts/system/analyzer.ts</title>
<path fill="none" stroke="#cfffac" d="M1117.71,-581C1117.71,-581 886.54,-581 886.54,-581 882.58,-581 878.62,-577.05 878.62,-573.09 878.62,-573.09 878.62,-565.17 878.62,-565.17 878.62,-561.21 882.58,-557.25 886.54,-557.25 886.54,-557.25 1117.71,-557.25 1117.71,-557.25 1121.67,-557.25 1125.62,-561.21 1125.62,-565.17 1125.62,-565.17 1125.62,-573.09 1125.62,-573.09 1125.62,-577.05 1121.67,-581 1117.71,-581"/>
<text xml:space="preserve" text-anchor="middle" x="1002.12" y="-563.7" font-family="Arial" font-size="14.00" fill="#cfffac">src/engine/prompts/system/analyzer.ts</text>
</g>
<!-- src/engine/index.ts&#45;&gt;src/engine/prompts/system/analyzer.ts -->
<g id="edge10" class="edge">
<title>src/engine/index.ts&#45;&gt;src/engine/prompts/system/analyzer.ts</title>
<path fill="none" stroke="#757575" d="M196.75,-405.67C220.81,-407.39 246.61,-413.89 264.25,-431.13 327.59,-493.04 232.2,-570.44 300.25,-627.13 396.86,-707.61 791.71,-621.04 942.35,-584.13"/>
<polygon fill="#757575" stroke="#757575" points="942.85,-587.61 951.73,-581.82 941.18,-580.81 942.85,-587.61"/>
</g>
<!-- src/engine/prompts/system/editor.ts -->
<g id="node13" class="node">
<title>src/engine/prompts/system/editor.ts</title>
<path fill="none" stroke="#cfffac" d="M1109.08,-82C1109.08,-82 895.17,-82 895.17,-82 891.21,-82 887.25,-78.05 887.25,-74.09 887.25,-74.09 887.25,-66.17 887.25,-66.17 887.25,-62.21 891.21,-58.25 895.17,-58.25 895.17,-58.25 1109.08,-58.25 1109.08,-58.25 1113.04,-58.25 1117,-62.21 1117,-66.17 1117,-66.17 1117,-74.09 1117,-74.09 1117,-78.05 1113.04,-82 1109.08,-82"/>
<text xml:space="preserve" text-anchor="middle" x="1002.12" y="-64.7" font-family="Arial" font-size="14.00" fill="#cfffac">src/engine/prompts/system/editor.ts</text>
</g>
<!-- src/engine/index.ts&#45;&gt;src/engine/prompts/system/editor.ts -->
<g id="edge11" class="edge">
<title>src/engine/index.ts&#45;&gt;src/engine/prompts/system/editor.ts</title>
<path fill="none" stroke="#757575" d="M134.71,-398.01C142.05,-347.33 177.82,-151.48 300.25,-75.13 511.27,56.46 832.04,-18.86 952.85,-54.6"/>
<polygon fill="#757575" stroke="#757575" points="951.54,-57.86 962.12,-57.39 953.55,-51.16 951.54,-57.86"/>
</g>
<!-- src/engine/prompts/system/translator.ts -->
<g id="node14" class="node">
<title>src/engine/prompts/system/translator.ts</title>
<path fill="none" stroke="#cfffac" d="M1120.33,-178C1120.33,-178 883.92,-178 883.92,-178 879.96,-178 876,-174.05 876,-170.09 876,-170.09 876,-162.17 876,-162.17 876,-158.21 879.96,-154.25 883.92,-154.25 883.92,-154.25 1120.33,-154.25 1120.33,-154.25 1124.29,-154.25 1128.25,-158.21 1128.25,-162.17 1128.25,-162.17 1128.25,-170.09 1128.25,-170.09 1128.25,-174.05 1124.29,-178 1120.33,-178"/>
<text xml:space="preserve" text-anchor="middle" x="1002.12" y="-160.7" font-family="Arial" font-size="14.00" fill="#cfffac">src/engine/prompts/system/translator.ts</text>
</g>
<!-- src/engine/index.ts&#45;&gt;src/engine/prompts/system/translator.ts -->
<g id="edge12" class="edge">
<title>src/engine/index.ts&#45;&gt;src/engine/prompts/system/translator.ts</title>
<path fill="none" stroke="#757575" d="M136.14,-397.91C147.89,-353.28 195.26,-198.62 300.25,-140.13 520.26,-17.57 842.25,-110.02 957.84,-150.05"/>
<polygon fill="#757575" stroke="#757575" points="956.34,-153.24 966.94,-153.25 958.66,-146.64 956.34,-153.24"/>
</g>
<!-- src/engine/providers/openai.ts -->
<g id="node15" class="node">
<title>src/engine/providers/openai.ts</title>
<path fill="none" stroke="#c6c5fe" d="M520.21,-576C520.21,-576 340.04,-576 340.04,-576 336.08,-576 332.12,-572.05 332.12,-568.09 332.12,-568.09 332.12,-560.17 332.12,-560.17 332.12,-556.21 336.08,-552.25 340.04,-552.25 340.04,-552.25 520.21,-552.25 520.21,-552.25 524.17,-552.25 528.12,-556.21 528.12,-560.17 528.12,-560.17 528.12,-568.09 528.12,-568.09 528.12,-572.05 524.17,-576 520.21,-576"/>
<text xml:space="preserve" text-anchor="middle" x="430.12" y="-558.7" font-family="Arial" font-size="14.00" fill="#c6c5fe">src/engine/providers/openai.ts</text>
</g>
<!-- src/engine/index.ts&#45;&gt;src/engine/providers/openai.ts -->
<g id="edge13" class="edge">
<title>src/engine/index.ts&#45;&gt;src/engine/providers/openai.ts</title>
<path fill="none" stroke="#757575" d="M196.55,-407.07C220.15,-409.08 245.69,-415.41 264.25,-431.13 302.54,-463.55 262.62,-504.94 300.25,-538.13 306.49,-543.63 313.56,-548.09 321.11,-551.7"/>
<polygon fill="#757575" stroke="#757575" points="319.68,-554.89 330.25,-555.52 322.38,-548.43 319.68,-554.89"/>
</g>
<!-- src/engine/stages/stage&#45;1&#45;analyze.ts -->
<g id="node16" class="node">
<title>src/engine/stages/stage&#45;1&#45;analyze.ts</title>
<path fill="none" stroke="#c6c5fe" d="M826.46,-422C826.46,-422 606.54,-422 606.54,-422 602.58,-422 598.62,-418.05 598.62,-414.09 598.62,-414.09 598.62,-406.17 598.62,-406.17 598.62,-402.21 602.58,-398.25 606.54,-398.25 606.54,-398.25 826.46,-398.25 826.46,-398.25 830.42,-398.25 834.38,-402.21 834.38,-406.17 834.38,-406.17 834.38,-414.09 834.38,-414.09 834.38,-418.05 830.42,-422 826.46,-422"/>
<text xml:space="preserve" text-anchor="middle" x="716.5" y="-404.7" font-family="Arial" font-size="14.00" fill="#c6c5fe">src/engine/stages/stage&#45;1&#45;analyze.ts</text>
</g>
<!-- src/engine/index.ts&#45;&gt;src/engine/stages/stage&#45;1&#45;analyze.ts -->
<g id="edge14" class="edge">
<title>src/engine/index.ts&#45;&gt;src/engine/stages/stage&#45;1&#45;analyze.ts</title>
<path fill="none" stroke="#757575" d="M196.84,-410.13C290.21,-410.13 466.23,-410.13 587.1,-410.13"/>
<polygon fill="#757575" stroke="#757575" points="586.74,-413.63 596.74,-410.13 586.74,-406.63 586.74,-413.63"/>
</g>
<!-- src/engine/stages/stage&#45;2&#45;translate.ts -->
<g id="node17" class="node">
<title>src/engine/stages/stage&#45;2&#45;translate.ts</title>
<path fill="none" stroke="#c6c5fe" d="M829.08,-300C829.08,-300 603.92,-300 603.92,-300 599.96,-300 596,-296.05 596,-292.09 596,-292.09 596,-284.17 596,-284.17 596,-280.21 599.96,-276.25 603.92,-276.25 603.92,-276.25 829.08,-276.25 829.08,-276.25 833.04,-276.25 837,-280.21 837,-284.17 837,-284.17 837,-292.09 837,-292.09 837,-296.05 833.04,-300 829.08,-300"/>
<text xml:space="preserve" text-anchor="middle" x="716.5" y="-282.7" font-family="Arial" font-size="14.00" fill="#c6c5fe">src/engine/stages/stage&#45;2&#45;translate.ts</text>
</g>
<!-- src/engine/index.ts&#45;&gt;src/engine/stages/stage&#45;2&#45;translate.ts -->
<g id="edge15" class="edge">
<title>src/engine/index.ts&#45;&gt;src/engine/stages/stage&#45;2&#45;translate.ts</title>
<path fill="none" stroke="#757575" d="M161.25,-397.85C194.03,-384.02 250.1,-361.82 300.25,-349.13 393.95,-325.41 502.04,-309.89 584.45,-300.45"/>
<polygon fill="#757575" stroke="#757575" points="584.6,-303.95 594.14,-299.35 583.81,-297 584.6,-303.95"/>
</g>
<!-- src/engine/stages/stage&#45;3&#45;edit.ts -->
<g id="node18" class="node">
<title>src/engine/stages/stage&#45;3&#45;edit.ts</title>
<path fill="none" stroke="#c6c5fe" d="M814.08,-182C814.08,-182 618.92,-182 618.92,-182 614.96,-182 611,-178.05 611,-174.09 611,-174.09 611,-166.17 611,-166.17 611,-162.21 614.96,-158.25 618.92,-158.25 618.92,-158.25 814.08,-158.25 814.08,-158.25 818.04,-158.25 822,-162.21 822,-166.17 822,-166.17 822,-174.09 822,-174.09 822,-178.05 818.04,-182 814.08,-182"/>
<text xml:space="preserve" text-anchor="middle" x="716.5" y="-164.7" font-family="Arial" font-size="14.00" fill="#c6c5fe">src/engine/stages/stage&#45;3&#45;edit.ts</text>
</g>
<!-- src/engine/index.ts&#45;&gt;src/engine/stages/stage&#45;3&#45;edit.ts -->
<g id="edge16" class="edge">
<title>src/engine/index.ts&#45;&gt;src/engine/stages/stage&#45;3&#45;edit.ts</title>
<path fill="none" stroke="#757575" d="M138.17,-398.01C154.71,-360.01 211.43,-242.95 300.25,-196.13 404.93,-140.95 545.68,-145.74 633.47,-156.35"/>
<polygon fill="#757575" stroke="#757575" points="632.84,-159.8 643.2,-157.58 633.72,-152.85 632.84,-159.8"/>
</g>
<!-- src/engine/utils/chunker.ts -->
<g id="node19" class="node">
<title>src/engine/utils/chunker.ts</title>
<path fill="none" stroke="#c6c5fe" d="M1079.83,-262C1079.83,-262 924.42,-262 924.42,-262 920.46,-262 916.5,-258.05 916.5,-254.09 916.5,-254.09 916.5,-246.17 916.5,-246.17 916.5,-242.21 920.46,-238.25 924.42,-238.25 924.42,-238.25 1079.83,-238.25 1079.83,-238.25 1083.79,-238.25 1087.75,-242.21 1087.75,-246.17 1087.75,-246.17 1087.75,-254.09 1087.75,-254.09 1087.75,-258.05 1083.79,-262 1079.83,-262"/>
<text xml:space="preserve" text-anchor="middle" x="1002.12" y="-244.7" font-family="Arial" font-size="14.00" fill="#c6c5fe">src/engine/utils/chunker.ts</text>
</g>
<!-- src/engine/index.ts&#45;&gt;src/engine/utils/chunker.ts -->
<g id="edge17" class="edge">
<title>src/engine/index.ts&#45;&gt;src/engine/utils/chunker.ts</title>
<path fill="none" stroke="#757575" d="M146.63,-397.93C173.57,-374.39 236.87,-323.02 300.25,-300.13 505.59,-225.96 766.37,-231.06 904.71,-240.84"/>
<polygon fill="#757575" stroke="#757575" points="904.35,-244.32 914.58,-241.56 904.86,-237.34 904.35,-244.32"/>
</g>
<!-- src/engine/pipeline/translation&#45;pipeline.ts&#45;&gt;src/engine/agents/novel&#45;agent.ts -->
<g id="edge19" class="edge">
<title>src/engine/pipeline/translation&#45;pipeline.ts&#45;&gt;src/engine/agents/novel&#45;agent.ts</title>
<path fill="none" stroke="#757575" d="M460.59,-382.39C487.42,-394.1 527.67,-413.05 560,-434.13 577.45,-445.5 577.29,-454.99 596,-464.13 604.43,-468.25 613.52,-471.72 622.77,-474.65"/>
<polygon fill="#757575" stroke="#757575" points="621.66,-477.97 632.24,-477.41 623.62,-471.25 621.66,-477.97"/>
</g>
<!-- src/engine/pipeline/translation&#45;pipeline.ts&#45;&gt;src/engine/constants/errors.ts -->
<g id="edge20" class="edge">
<title>src/engine/pipeline/translation&#45;pipeline.ts&#45;&gt;src/engine/constants/errors.ts</title>
<path fill="none" stroke="#757575" d="M458.85,-382.43C491.16,-396.29 546.46,-418.51 596,-431.13 624.72,-438.45 787.95,-461.27 898.25,-476.29"/>
<polygon fill="#757575" stroke="#757575" points="897.54,-479.72 907.92,-477.6 898.48,-472.79 897.54,-479.72"/>
</g>
<!-- src/engine/pipeline/translation&#45;pipeline.ts&#45;&gt;src/engine/glossary/glossary&#45;filter.ts -->
<g id="edge21" class="edge">
<title>src/engine/pipeline/translation&#45;pipeline.ts&#45;&gt;src/engine/glossary/glossary&#45;filter.ts</title>
<path fill="none" stroke="#757575" d="M445.91,-357.87C473.49,-335.74 535.48,-289.32 596,-267.13 686.18,-234.06 794.05,-219.46 875.8,-213.05"/>
<polygon fill="#757575" stroke="#757575" points="875.94,-216.55 885.65,-212.31 875.41,-209.57 875.94,-216.55"/>
</g>
<!-- src/engine/pipeline/translation&#45;pipeline.ts&#45;&gt;src/engine/stages/stage&#45;1&#45;analyze.ts -->
<g id="edge23" class="edge">
<title>src/engine/pipeline/translation&#45;pipeline.ts&#45;&gt;src/engine/stages/stage&#45;1&#45;analyze.ts</title>
<path fill="none" stroke="#757575" d="M518.77,-382.46C549.72,-386.81 584.73,-391.73 616.55,-396.21"/>
<polygon fill="#757575" stroke="#757575" points="615.77,-399.63 626.16,-397.56 616.74,-392.7 615.77,-399.63"/>
</g>
<!-- src/engine/pipeline/translation&#45;pipeline.ts&#45;&gt;src/engine/stages/stage&#45;2&#45;translate.ts -->
<g id="edge24" class="edge">
<title>src/engine/pipeline/translation&#45;pipeline.ts&#45;&gt;src/engine/stages/stage&#45;2&#45;translate.ts</title>
<path fill="none" stroke="#757575" d="M465.66,-357.76C491.65,-348.39 528.13,-335.14 560,-323.13 576.07,-317.08 579.47,-313.75 596,-309.13 604.27,-306.82 612.94,-304.71 621.67,-302.8"/>
<polygon fill="#757575" stroke="#757575" points="622.19,-306.27 631.26,-300.79 620.75,-299.42 622.19,-306.27"/>
</g>
<!-- src/engine/pipeline/translation&#45;pipeline.ts&#45;&gt;src/engine/stages/stage&#45;3&#45;edit.ts -->
<g id="edge25" class="edge">
<title>src/engine/pipeline/translation&#45;pipeline.ts&#45;&gt;src/engine/stages/stage&#45;3&#45;edit.ts</title>
<path fill="none" stroke="#757575" d="M444.1,-357.89C471.04,-332.84 535.6,-274.63 596,-234.13 622.56,-216.32 654.6,-199.38 678.81,-187.41"/>
<polygon fill="#757575" stroke="#757575" points="680.19,-190.63 687.64,-183.1 677.12,-184.34 680.19,-190.63"/>
</g>
<!-- src/engine/logger.ts -->
<g id="node21" class="node">
<title>src/engine/logger.ts</title>
<path fill="none" stroke="#c6c5fe" d="M1333.21,-342C1333.21,-342 1216.04,-342 1216.04,-342 1212.08,-342 1208.12,-338.05 1208.12,-334.09 1208.12,-334.09 1208.12,-326.17 1208.12,-326.17 1208.12,-322.21 1212.08,-318.25 1216.04,-318.25 1216.04,-318.25 1333.21,-318.25 1333.21,-318.25 1337.17,-318.25 1341.12,-322.21 1341.12,-326.17 1341.12,-326.17 1341.12,-334.09 1341.12,-334.09 1341.12,-338.05 1337.17,-342 1333.21,-342"/>
<text xml:space="preserve" text-anchor="middle" x="1274.62" y="-324.7" font-family="Arial" font-size="14.00" fill="#c6c5fe">src/engine/logger.ts</text>
</g>
<!-- src/engine/pipeline/translation&#45;pipeline.ts&#45;&gt;src/engine/logger.ts -->
<g id="edge22" class="edge">
<title>src/engine/pipeline/translation&#45;pipeline.ts&#45;&gt;src/engine/logger.ts</title>
<path fill="none" stroke="#757575" d="M560.43,-371.23C701.13,-371.35 932.59,-368.41 1131.25,-351.13 1152.56,-349.27 1175.54,-346.31 1196.69,-343.19"/>
<polygon fill="#757575" stroke="#757575" points="1197.03,-346.68 1206.4,-341.72 1195.99,-339.76 1197.03,-346.68"/>
</g>
<!-- src/engine/utils/concurrency.ts -->
<g id="node23" class="node">
<title>src/engine/utils/concurrency.ts</title>
<path fill="none" stroke="#cfffac" d="M806.96,-342C806.96,-342 626.04,-342 626.04,-342 622.08,-342 618.12,-338.05 618.12,-334.09 618.12,-334.09 618.12,-326.17 618.12,-326.17 618.12,-322.21 622.08,-318.25 626.04,-318.25 626.04,-318.25 806.96,-318.25 806.96,-318.25 810.92,-318.25 814.88,-322.21 814.88,-326.17 814.88,-326.17 814.88,-334.09 814.88,-334.09 814.88,-338.05 810.92,-342 806.96,-342"/>
<text xml:space="preserve" text-anchor="middle" x="716.5" y="-324.7" font-family="Arial" font-size="14.00" fill="#cfffac">src/engine/utils/concurrency.ts</text>
</g>
<!-- src/engine/pipeline/translation&#45;pipeline.ts&#45;&gt;src/engine/utils/concurrency.ts -->
<g id="edge26" class="edge">
<title>src/engine/pipeline/translation&#45;pipeline.ts&#45;&gt;src/engine/utils/concurrency.ts</title>
<path fill="none" stroke="#757575" d="M518.77,-357.8C549.72,-353.45 584.73,-348.52 616.55,-344.05"/>
<polygon fill="#757575" stroke="#757575" points="616.74,-347.55 626.16,-342.7 615.77,-340.62 616.74,-347.55"/>
</g>
<!-- src/engine/providers/openai.ts&#45;&gt;src/engine/logger.ts -->
<g id="edge27" class="edge">
<title>src/engine/providers/openai.ts&#45;&gt;src/engine/logger.ts</title>
<path fill="none" stroke="#757575" d="M528.56,-574.42C709.68,-592.58 1084.17,-625.24 1131.25,-590.13 1176.23,-556.58 1141.78,-519.12 1167.25,-469.13 1190.82,-422.87 1230.31,-376.44 1253.97,-350.68"/>
<polygon fill="#757575" stroke="#757575" points="1256.34,-353.27 1260.6,-343.57 1251.22,-348.5 1256.34,-353.27"/>
</g>
<!-- src/engine/stages/stage&#45;1&#45;analyze.ts&#45;&gt;src/engine/glossary/glossary&#45;manager.ts -->
<g id="edge28" class="edge">
<title>src/engine/stages/stage&#45;1&#45;analyze.ts&#45;&gt;src/engine/glossary/glossary&#45;manager.ts</title>
<path fill="none" stroke="#757575" d="M834.5,-410.13C843.4,-410.13 852.44,-410.13 861.47,-410.13"/>
<polygon fill="#757575" stroke="#757575" points="861.38,-413.63 871.38,-410.13 861.38,-406.63 861.38,-413.63"/>
</g>
<!-- src/engine/stages/stage&#45;1&#45;analyze.ts&#45;&gt;src/engine/prompts/system/analyzer.ts -->
<g id="edge30" class="edge">
<title>src/engine/stages/stage&#45;1&#45;analyze.ts&#45;&gt;src/engine/prompts/system/analyzer.ts</title>
<path fill="none" stroke="#757575" d="M751.26,-422.5C776.41,-432.69 810.78,-448.76 837,-469.13 856.42,-484.21 853.33,-496.37 873,-511.13 896.82,-529 927.02,-543 952.12,-552.77"/>
<polygon fill="#757575" stroke="#757575" points="950.88,-556.05 961.47,-556.3 953.35,-549.5 950.88,-556.05"/>
</g>
<!-- src/engine/stages/stage&#45;1&#45;analyze.ts&#45;&gt;src/engine/utils/chunker.ts -->
<g id="edge31" class="edge">
<title>src/engine/stages/stage&#45;1&#45;analyze.ts&#45;&gt;src/engine/utils/chunker.ts</title>
<path fill="none" stroke="#757575" d="M751.26,-397.76C776.41,-387.57 810.78,-371.5 837,-351.13 856.42,-336.05 853.38,-323.95 873,-309.13 897.2,-290.85 927.96,-276.46 953.27,-266.46"/>
<polygon fill="#757575" stroke="#757575" points="954.25,-269.83 962.34,-262.99 951.75,-263.29 954.25,-269.83"/>
</g>
<!-- src/engine/stages/stage&#45;1&#45;analyze.ts&#45;&gt;src/engine/logger.ts -->
<g id="edge29" class="edge">
<title>src/engine/stages/stage&#45;1&#45;analyze.ts&#45;&gt;src/engine/logger.ts</title>
<path fill="none" stroke="#757575" d="M793.62,-422.48C818.81,-426.02 847.04,-429.38 873,-431.13 987.52,-438.83 1021.89,-465.98 1131.25,-431.13 1181.1,-415.24 1228.47,-374.85 1254.03,-350.23"/>
<polygon fill="#757575" stroke="#757575" points="1256.38,-352.82 1261.05,-343.3 1251.47,-347.83 1256.38,-352.82"/>
</g>
<!-- src/engine/stages/stage&#45;2&#45;translate.ts&#45;&gt;src/engine/constants/errors.ts -->
<g id="edge32" class="edge">
<title>src/engine/stages/stage&#45;2&#45;translate.ts&#45;&gt;src/engine/constants/errors.ts</title>
<path fill="none" stroke="#757575" d="M825.03,-300.47C829.29,-302.96 833.31,-305.83 837,-309.13 879.17,-346.78 836.02,-388.37 873,-431.13 890.37,-451.21 916,-464.86 939.78,-473.93"/>
<polygon fill="#757575" stroke="#757575" points="938.52,-477.2 949.12,-477.27 940.88,-470.6 938.52,-477.2"/>
</g>
<!-- src/engine/stages/stage&#45;2&#45;translate.ts&#45;&gt;src/engine/glossary/glossary&#45;filter.ts -->
<g id="edge33" class="edge">
<title>src/engine/stages/stage&#45;2&#45;translate.ts&#45;&gt;src/engine/glossary/glossary&#45;filter.ts</title>
<path fill="none" stroke="#757575" d="M801.44,-275.78C813.74,-272.3 825.97,-267.84 837,-262.13 856.27,-252.14 853.48,-238.61 873,-229.13 876.72,-227.32 880.56,-225.67 884.49,-224.15"/>
<polygon fill="#757575" stroke="#757575" points="885.35,-227.56 893.63,-220.96 883.04,-220.95 885.35,-227.56"/>
</g>
<!-- src/engine/stages/stage&#45;2&#45;translate.ts&#45;&gt;src/engine/glossary/glossary&#45;manager.ts -->
<g id="edge34" class="edge">
<title>src/engine/stages/stage&#45;2&#45;translate.ts&#45;&gt;src/engine/glossary/glossary&#45;manager.ts</title>
<path fill="none" stroke="#757575" d="M818.11,-300.45C824.69,-302.87 831.05,-305.74 837,-309.13 858.36,-321.3 853.38,-336.31 873,-351.13 897.2,-369.4 927.96,-383.8 953.27,-393.8"/>
<polygon fill="#757575" stroke="#757575" points="951.75,-396.96 962.34,-397.27 954.25,-390.43 951.75,-396.96"/>
</g>
<!-- src/engine/stages/stage&#45;2&#45;translate.ts&#45;&gt;src/engine/prompts/system/translator.ts -->
<g id="edge36" class="edge">
<title>src/engine/stages/stage&#45;2&#45;translate.ts&#45;&gt;src/engine/prompts/system/translator.ts</title>
<path fill="none" stroke="#757575" d="M731.8,-275.85C757.93,-254.15 815.96,-209.2 873,-187.13 878.38,-185.05 883.97,-183.17 889.66,-181.48"/>
<polygon fill="#757575" stroke="#757575" points="890.54,-184.87 899.26,-178.85 888.69,-178.12 890.54,-184.87"/>
</g>
<!-- src/engine/stages/stage&#45;2&#45;translate.ts&#45;&gt;src/engine/utils/chunker.ts -->
<g id="edge37" class="edge">
<title>src/engine/stages/stage&#45;2&#45;translate.ts&#45;&gt;src/engine/utils/chunker.ts</title>
<path fill="none" stroke="#757575" d="M809.58,-275.79C840.13,-271.7 874.19,-267.14 905.02,-263"/>
<polygon fill="#757575" stroke="#757575" points="905.28,-266.5 914.73,-261.7 904.35,-259.56 905.28,-266.5"/>
</g>
<!-- src/engine/stages/stage&#45;2&#45;translate.ts&#45;&gt;src/engine/logger.ts -->
<g id="edge35" class="edge">
<title>src/engine/stages/stage&#45;2&#45;translate.ts&#45;&gt;src/engine/logger.ts</title>
<path fill="none" stroke="#757575" d="M837.22,-291.17C919.96,-294.02 1032.48,-299.36 1131.25,-309.13 1152.54,-311.23 1175.51,-314.28 1196.66,-317.4"/>
<polygon fill="#757575" stroke="#757575" points="1195.96,-320.84 1206.37,-318.86 1197,-313.91 1195.96,-320.84"/>
</g>
<!-- src/engine/stages/stage&#45;3&#45;edit.ts&#45;&gt;src/engine/glossary/glossary&#45;filter.ts -->
<g id="edge38" class="edge">
<title>src/engine/stages/stage&#45;3&#45;edit.ts&#45;&gt;src/engine/glossary/glossary&#45;filter.ts</title>
<path fill="none" stroke="#757575" d="M809.58,-182.47C837.72,-186.23 868.84,-190.4 897.67,-194.27"/>
<polygon fill="#757575" stroke="#757575" points="897.14,-197.73 907.52,-195.59 898.07,-190.79 897.14,-197.73"/>
</g>
<!-- src/engine/stages/stage&#45;3&#45;edit.ts&#45;&gt;src/engine/glossary/glossary&#45;manager.ts -->
<g id="edge39" class="edge">
<title>src/engine/stages/stage&#45;3&#45;edit.ts&#45;&gt;src/engine/glossary/glossary&#45;manager.ts</title>
<path fill="none" stroke="#757575" d="M738.25,-182.47C764.36,-198.91 809.14,-230.24 837,-267.13 861.48,-299.54 844.66,-322.03 873,-351.13 892.27,-370.92 919.44,-384.73 943.8,-393.98"/>
<polygon fill="#757575" stroke="#757575" points="942.38,-397.19 952.97,-397.28 944.75,-390.6 942.38,-397.19"/>
</g>
<!-- src/engine/stages/stage&#45;3&#45;edit.ts&#45;&gt;src/engine/prompts/system/editor.ts -->
<g id="edge41" class="edge">
<title>src/engine/stages/stage&#45;3&#45;edit.ts&#45;&gt;src/engine/prompts/system/editor.ts</title>
<path fill="none" stroke="#757575" d="M749.23,-157.87C780.56,-145.86 829.9,-127.22 873,-112.13 898.65,-103.14 927.39,-93.67 951.14,-86"/>
<polygon fill="#757575" stroke="#757575" points="952.13,-89.36 960.58,-82.96 949.99,-82.69 952.13,-89.36"/>
</g>
<!-- src/engine/stages/stage&#45;3&#45;edit.ts&#45;&gt;src/engine/utils/chunker.ts -->
<g id="edge42" class="edge">
<title>src/engine/stages/stage&#45;3&#45;edit.ts&#45;&gt;src/engine/utils/chunker.ts</title>
<path fill="none" stroke="#757575" d="M801.44,-182.47C813.74,-185.95 825.97,-190.41 837,-196.13 856.27,-206.11 853.48,-219.64 873,-229.13 883.04,-234 893.98,-237.78 905.11,-240.7"/>
<polygon fill="#757575" stroke="#757575" points="904.26,-244.09 914.8,-242.99 905.87,-237.28 904.26,-244.09"/>
</g>
<!-- src/engine/stages/stage&#45;3&#45;edit.ts&#45;&gt;src/engine/logger.ts -->
<g id="edge40" class="edge">
<title>src/engine/stages/stage&#45;3&#45;edit.ts&#45;&gt;src/engine/logger.ts</title>
<path fill="none" stroke="#757575" d="M749.97,-157.84C822.67,-132.45 1002.28,-81.64 1131.25,-145.13 1201.05,-179.49 1246.22,-266.33 1264.46,-307.64"/>
<polygon fill="#757575" stroke="#757575" points="1261.14,-308.78 1268.29,-316.6 1267.58,-306.03 1261.14,-308.78"/>
</g>
<!-- src/engine/utils/chunker.ts&#45;&gt;src/engine/logger.ts -->
<g id="edge43" class="edge">
<title>src/engine/utils/chunker.ts&#45;&gt;src/engine/logger.ts</title>
<path fill="none" stroke="#757575" d="M1074.45,-262.47C1093.08,-266.27 1113.04,-270.87 1131.25,-276.13 1167.06,-286.48 1206.61,-301.81 1234.92,-313.49"/>
<polygon fill="#757575" stroke="#757575" points="1233.21,-316.57 1243.79,-317.19 1235.91,-310.11 1233.21,-316.57"/>
</g>
<!-- src/engine/interfaces/llm&#45;provider.ts -->
<g id="node20" class="node">
<title>src/engine/interfaces/llm&#45;provider.ts</title>
<path fill="none" stroke="#cfffac" d="M238.71,-506C238.71,-506 25.54,-506 25.54,-506 21.58,-506 17.63,-502.05 17.63,-498.09 17.63,-498.09 17.63,-490.17 17.63,-490.17 17.63,-486.21 21.58,-482.25 25.54,-482.25 25.54,-482.25 238.71,-482.25 238.71,-482.25 242.67,-482.25 246.62,-486.21 246.62,-490.17 246.62,-490.17 246.62,-498.09 246.62,-498.09 246.62,-502.05 242.67,-506 238.71,-506"/>
<text xml:space="preserve" text-anchor="middle" x="132.12" y="-488.7" font-family="Arial" font-size="14.00" fill="#cfffac">src/engine/interfaces/llm&#45;provider.ts</text>
</g>
<!-- src/logger.ts -->
<g id="node22" class="node">
<title>src/logger.ts</title>
<path fill="none" stroke="#c6c5fe" d="M1498.83,-342C1498.83,-342 1425.92,-342 1425.92,-342 1421.96,-342 1418,-338.05 1418,-334.09 1418,-334.09 1418,-326.17 1418,-326.17 1418,-322.21 1421.96,-318.25 1425.92,-318.25 1425.92,-318.25 1498.83,-318.25 1498.83,-318.25 1502.79,-318.25 1506.75,-322.21 1506.75,-326.17 1506.75,-326.17 1506.75,-334.09 1506.75,-334.09 1506.75,-338.05 1502.79,-342 1498.83,-342"/>
<text xml:space="preserve" text-anchor="middle" x="1462.38" y="-324.7" font-family="Arial" font-size="14.00" fill="#c6c5fe">src/logger.ts</text>
</g>
<!-- src/engine/logger.ts&#45;&gt;src/logger.ts -->
<g id="edge18" class="edge">
<title>src/engine/logger.ts&#45;&gt;src/logger.ts</title>
<path fill="none" stroke="#757575" d="M1341.37,-330.13C1362.59,-330.13 1385.87,-330.13 1406.23,-330.13"/>
<polygon fill="#757575" stroke="#757575" points="1406.02,-333.63 1416.01,-330.13 1406.01,-326.63 1406.02,-333.63"/>
</g>
<!-- src/logger.ts&#45;&gt;src/debugBuffer.ts -->
<g id="edge45" class="edge">
<title>src/logger.ts&#45;&gt;src/debugBuffer.ts</title>
<path fill="none" stroke="#757575" d="M1507.14,-330.13C1514.71,-330.13 1522.76,-330.13 1530.86,-330.13"/>
<polygon fill="#757575" stroke="#757575" points="1530.79,-333.63 1540.79,-330.13 1530.79,-326.63 1530.79,-333.63"/>
</g>
<!-- src/engine/types/agent.ts -->
<g id="node24" class="node">
<title>src/engine/types/agent.ts</title>
<path fill="none" stroke="#cfffac" d="M207.21,-548C207.21,-548 57.04,-548 57.04,-548 53.08,-548 49.12,-544.05 49.12,-540.09 49.12,-540.09 49.12,-532.17 49.12,-532.17 49.12,-528.21 53.08,-524.25 57.04,-524.25 57.04,-524.25 207.21,-524.25 207.21,-524.25 211.17,-524.25 215.12,-528.21 215.12,-532.17 215.12,-532.17 215.12,-540.09 215.12,-540.09 215.12,-544.05 211.17,-548 207.21,-548"/>
<text xml:space="preserve" text-anchor="middle" x="132.12" y="-530.7" font-family="Arial" font-size="14.00" fill="#cfffac">src/engine/types/agent.ts</text>
</g>
<!-- src/engine/types/common.ts -->
<g id="node25" class="node">
<title>src/engine/types/common.ts</title>
<path fill="none" stroke="#cfffac" d="M216.96,-590C216.96,-590 47.29,-590 47.29,-590 43.33,-590 39.38,-586.05 39.38,-582.09 39.38,-582.09 39.38,-574.17 39.38,-574.17 39.38,-570.21 43.33,-566.25 47.29,-566.25 47.29,-566.25 216.96,-566.25 216.96,-566.25 220.92,-566.25 224.88,-570.21 224.88,-574.17 224.88,-574.17 224.88,-582.09 224.88,-582.09 224.88,-586.05 220.92,-590 216.96,-590"/>
<text xml:space="preserve" text-anchor="middle" x="132.12" y="-572.7" font-family="Arial" font-size="14.00" fill="#cfffac">src/engine/types/common.ts</text>
</g>
<!-- src/engine/types/glossary.ts -->
<g id="node26" class="node">
<title>src/engine/types/glossary.ts</title>
<path fill="none" stroke="#cfffac" d="M215.08,-632C215.08,-632 49.17,-632 49.17,-632 45.21,-632 41.25,-628.05 41.25,-624.09 41.25,-624.09 41.25,-616.17 41.25,-616.17 41.25,-612.21 45.21,-608.25 49.17,-608.25 49.17,-608.25 215.08,-608.25 215.08,-608.25 219.04,-608.25 223,-612.21 223,-616.17 223,-616.17 223,-624.09 223,-624.09 223,-628.05 219.04,-632 215.08,-632"/>
<text xml:space="preserve" text-anchor="middle" x="132.12" y="-614.7" font-family="Arial" font-size="14.00" fill="#cfffac">src/engine/types/glossary.ts</text>
</g>
<!-- src/engine/types/pipeline.ts -->
<g id="node27" class="node">
<title>src/engine/types/pipeline.ts</title>
<path fill="none" stroke="#cfffac" d="M213.58,-674C213.58,-674 50.67,-674 50.67,-674 46.71,-674 42.75,-670.05 42.75,-666.09 42.75,-666.09 42.75,-658.17 42.75,-658.17 42.75,-654.21 46.71,-650.25 50.67,-650.25 50.67,-650.25 213.58,-650.25 213.58,-650.25 217.54,-650.25 221.5,-654.21 221.5,-658.17 221.5,-658.17 221.5,-666.09 221.5,-666.09 221.5,-670.05 217.54,-674 213.58,-674"/>
<text xml:space="preserve" text-anchor="middle" x="132.12" y="-656.7" font-family="Arial" font-size="14.00" fill="#cfffac">src/engine/types/pipeline.ts</text>
</g>
<!-- src/engine/utils/text&#45;blocks.ts -->
<g id="node28" class="node">
<title>src/engine/utils/text&#45;blocks.ts</title>
<path fill="none" stroke="#c6c5fe" d="M1088.46,-342C1088.46,-342 915.79,-342 915.79,-342 911.83,-342 907.88,-338.05 907.88,-334.09 907.88,-334.09 907.88,-326.17 907.88,-326.17 907.88,-322.21 911.83,-318.25 915.79,-318.25 915.79,-318.25 1088.46,-318.25 1088.46,-318.25 1092.42,-318.25 1096.38,-322.21 1096.38,-326.17 1096.38,-326.17 1096.38,-334.09 1096.38,-334.09 1096.38,-338.05 1092.42,-342 1088.46,-342"/>
<text xml:space="preserve" text-anchor="middle" x="1002.12" y="-324.7" font-family="Arial" font-size="14.00" fill="#c6c5fe">src/engine/utils/text&#45;blocks.ts</text>
</g>
<!-- src/engine/utils/text&#45;blocks.ts&#45;&gt;src/engine/logger.ts -->
<g id="edge44" class="edge">
<title>src/engine/utils/text&#45;blocks.ts&#45;&gt;src/engine/logger.ts</title>
<path fill="none" stroke="#757575" d="M1096.59,-330.13C1129.24,-330.13 1165.48,-330.13 1196.62,-330.13"/>
<polygon fill="#757575" stroke="#757575" points="1196.34,-333.63 1206.34,-330.13 1196.34,-326.63 1196.34,-333.63"/>
</g>
</g>
</svg>
